<svg  width="66" height="120" xmlns="http://www.w3.org/2000/svg">		
	<line fill="none" stroke-width="4" x1="20.51358" y1="10.75881" x2="20.51358" y2="90.75881" stroke="#555"/>
	<line fill="none" stroke-width="4" x1="40.51358" y1="10.75881" x2="40.51358" y2="64.03278" stroke="#555"/>
	<path fill="none" stroke-width="4" d="m20.50296,11.61544c0.12345,-12.7848 20.01475,-12.97575 19.99059,0.24649" stroke="#555"/>
	<path fill="none" stroke-width="4" d="m20.3766,43.36155c-10.37597,-0.13699 -10.21756,-0.00001 -9.82153,-28.90412" stroke="#555"/>
	<path fill="none" stroke-width="4" d="m20.51358,59.66291c-0.02023,-1.86098 -0.97525,-6.63216 -7.67123,-6.57534" stroke="#555"/>
	<path fill="none" stroke-width="4" d="m13.04078,53.095c-11.18744,0.125 -11.12495,-0.43748 -10.99995,-38.68732" stroke="#555"/>
	<path fill="none" stroke-width="4" d="m2.0398,14.69595c-0.12056,-4.62486 8.74977,-4.18737 8.49977,0.12501" stroke="#555"/>
	<path fill="none" stroke-width="4" d="m42.34843,62.01502c11.22646,0.11069 11.0964,0.27476 11.21268,-28.90412" stroke="#555"/>
	<line fill="none" stroke-width="4" x1="40.54098" y1="78.03278" x2="40.54098" y2="91.03278" stroke="#555"/>
	<path fill="none" stroke-width="4" d="m40.56916,79.78386c0,-5.12821 -0.33085,-7.69231 8.93301,-7.52689" stroke="#555"/>
	<path fill="none" stroke-width="4" d="m49.17132,72.25698c15.88091,-0.24815 14.30936,-0.24814 14.72292,-38.95785" stroke="#555"/>
	<path fill="none" stroke-width="4" d="m53.55512,33.21642c-0.00001,-5.62449 10.25772,-5.95534 10.33912,0.16544" stroke="#555"/>
	<path fill="none" stroke-width="4" d="m20.50701,81.53994c-0.0899,-15.92144 14.68499,-19.3301 22.10679,-19.63589" stroke="#555"/>
	<line fill="none" stroke-width="4" x1="11.15603" y1="92.74004" x2="51.15603" y2="92.74004" stroke="#555"/>
	<path fill="none" stroke-width="4" d="m11.40321,92.7934c-4.87805,-0.25674 -4.87805,6.03336 -0.00001,6.03339" stroke="#555"/>
	<path fill="none" stroke-width="4" d="m50.8127,92.7934c5.04921,-0.25674 5.04921,6.03336 0.00001,6.03339" stroke="#555"/>
	<line fill="none" stroke-width="4" x1="11.14646" y1="98.82677" x2="51.20295" y2="98.82677" stroke="#555"/>
	<line fill="none" stroke-width="4" x1="11.4032" y1="99.9821" x2="17.17984" y2="120.52124" stroke="#555"/>
	<line fill="none" stroke-width="4" x1="50.81269" y1="99.59699" x2="45.21709" y2="120.548" stroke="#555"/>
	<line fill="none" stroke-width="4" x1="15.25429" y1="119.10918" x2="47.06967" y2="119.10918" stroke="#555"/>
</svg>